# xmcd
#
# Track frame offsets: 
#        150
#        16116
#        33835
#        65121
#        85182
#        111880
#        127553
#        142960
#        157050
#        182791
#        203682
#
# Disc length: 2970 seconds
#
# Revision: 1
# Processed by: cddbd v1.5.2PL0 Copyright (c) Steve Scherf et al.
# Submitted via: ExactAudioCopy v0.99pb5
#
DISCID=880b980b
DTITLE=Alabama Mike - Day To Day
DYEAR=2009
DGENRE=Blues
TTITLE0=Day To Day
TTITLE1=Death Letter Blues
TTITLE2=Religion
TTITLE3=Naggin
TTITLE4=Lay My Money Down
TTITLE5=Strange Angels
TTITLE6=Too Many Cooks
TTITLE7=Knockin At Your Door
TTITLE8=Somethin On My Mind
TTITLE9=I've Been Rocked
TTITLE10=Sara Brown
EXTD=
EXTT0=
EXTT1=
EXTT2=
EXTT3=
EXTT4=
EXTT5=
EXTT6=
EXTT7=
EXTT8=
EXTT9=
EXTT10=
PLAYORDER=
